<svg xmlns="http://www.w3.org/2000/svg" xmlns:xlink="http://www.w3.org/1999/xlink" width="145.075" height="145.077" viewBox="0 0 145.075 145.077">
  <defs>
    <linearGradient id="linear-gradient" x1="-0.093" y1="-0.107" x2="0.839" y2="1.096" gradientUnits="objectBoundingBox">
      <stop offset="0" stop-color="#629509"/>
      <stop offset="1" stop-color="#da6200"/>
    </linearGradient>
  </defs>
  <g id="check-mark" transform="translate(0)">
    <path id="Path_33" data-name="Path 33" d="M129.773,58.416V16.434A16.453,16.453,0,0,0,113.339,0H76.224a2.834,2.834,0,1,0,0,5.667h37.115a10.78,10.78,0,0,1,10.767,10.767V58.373H78.771A16.452,16.452,0,0,0,63.816,68H37.9a2.839,2.839,0,0,0-2.009.835L27.768,77V70.837A2.834,2.834,0,0,0,24.935,68h-8.5A10.78,10.78,0,0,1,5.667,57.236v-40.8A10.78,10.78,0,0,1,16.434,5.667H53.556a2.834,2.834,0,0,0,0-5.667H16.434A16.453,16.453,0,0,0,0,16.435v40.8A16.453,16.453,0,0,0,16.434,73.671H22.1v10.2a2.834,2.834,0,0,0,4.842,2l12.132-12.2h23.3c-.025.375-.043.754-.043,1.136v40.8a16.453,16.453,0,0,0,16.435,16.433H106l12.132,12.2a2.833,2.833,0,0,0,4.842-2v-10.2h5.667a16.453,16.453,0,0,0,16.434-16.433v-40.8a16.454,16.454,0,0,0-15.3-16.39Zm9.634,57.193a10.779,10.779,0,0,1-10.767,10.766h-8.5a2.834,2.834,0,0,0-2.834,2.834v6.167l-8.121-8.165a2.833,2.833,0,0,0-2.009-.835H78.771A10.78,10.78,0,0,1,68,115.609v-40.8A10.78,10.78,0,0,1,78.771,64.039H128.64a10.78,10.78,0,0,1,10.767,10.767Zm0,0" transform="translate(0)" fill="url(#linear-gradient)"/>
    <path id="Path_34" data-name="Path 34" d="M330.335,275.771a2.832,2.832,0,0,0-4.007,0l-10.9,10.9-3.692-3.692a2.835,2.835,0,0,0-4.007,0L299.709,291a2.832,2.832,0,0,0,0,4.007l13.711,13.711a2.833,2.833,0,0,0,3.993.013l20.936-20.936a2.834,2.834,0,0,0,0-4.008ZM315.423,302.7l-9.7-9.7,4.007-4.007,3.692,3.692a2.834,2.834,0,0,0,4.007,0l10.9-10.9,4.007,4.007Zm0,0" transform="translate(-214.191 -197.036)" fill="url(#linear-gradient)"/>
    <path id="Path_35" data-name="Path 35" d="M83.14,67.1a4.4,4.4,0,0,0-1.546-.283H73.6l-2.447-7.571a4.376,4.376,0,0,0-8.328,0l-2.447,7.571H52.382a4.376,4.376,0,0,0-2.565,7.922l6.474,4.682-2.479,7.574a4.374,4.374,0,0,0,6.738,4.9l6.437-4.7,6.439,4.7a4.377,4.377,0,0,0,6.74-4.9L77.687,79.42l5.453-3.945,5.455,3.945-2.479,7.574a4.375,4.375,0,0,0,6.74,4.9l6.437-4.7,6.439,4.7A4.375,4.375,0,0,0,112.47,87L109.99,79.42l5.451-3.943,5.451,3.943L118.413,87a4.376,4.376,0,0,0,6.74,4.9l6.439-4.7,6.437,4.7a4.377,4.377,0,0,0,6.74-4.9l-2.48-7.574,6.473-4.681a4.376,4.376,0,0,0-2.563-7.923H138.2l-2.447-7.571a4.376,4.376,0,0,0-8.328,0l-2.447,7.571h-7.995a4.352,4.352,0,0,0-1.543.283,4.361,4.361,0,0,0-1.543-.283h-8l-2.447-7.571a4.376,4.376,0,0,0-8.328,0L92.68,66.816H84.687a4.37,4.37,0,0,0-1.546.283ZM72.689,76.04a2.835,2.835,0,0,0-1.033,3.178l1.877,5.737L68.658,81.4a2.834,2.834,0,0,0-3.34,0l-4.877,3.559,1.878-5.737a2.833,2.833,0,0,0-1.033-3.178l-4.918-3.556h6.069a2.832,2.832,0,0,0,2.7-1.962l1.854-5.733,1.853,5.733a2.835,2.835,0,0,0,2.7,1.962h6.07Zm54.351-3.556a2.832,2.832,0,0,0,2.7-1.962l1.854-5.733,1.853,5.733a2.835,2.835,0,0,0,2.7,1.962h6.069l-4.918,3.556a2.835,2.835,0,0,0-1.033,3.178l1.878,5.737L133.261,81.4a2.835,2.835,0,0,0-3.342,0l-4.876,3.559,1.878-5.737a2.835,2.835,0,0,0-1.033-3.178l-4.918-3.556Zm-32.3,0a2.834,2.834,0,0,0,2.7-1.962l1.854-5.733,1.853,5.733a2.835,2.835,0,0,0,2.7,1.962h6.069l-4.918,3.556a2.835,2.835,0,0,0-1.033,3.178l1.878,5.737L100.963,81.4a2.835,2.835,0,0,0-3.342,0l-4.876,3.559,1.878-5.737a2.835,2.835,0,0,0-1.033-3.178l-4.918-3.556Zm0,0" transform="translate(-34.402 -40.286)" fill="url(#linear-gradient)"/>
    <path id="Path_36" data-name="Path 36" d="M221.838,5.669a2.838,2.838,0,1,0-2-.831A2.841,2.841,0,0,0,221.838,5.669Zm0,0" transform="translate(-156.949 -0.003)" fill="url(#linear-gradient)"/>
  </g>
</svg>
