<svg xmlns="http://www.w3.org/2000/svg" xmlns:xlink="http://www.w3.org/1999/xlink" width="187.316" height="145.077" viewBox="0 0 187.316 145.077">
  <defs>
    <linearGradient id="linear-gradient" x1="-0.093" y1="-0.107" x2="0.839" y2="1.096" gradientUnits="objectBoundingBox">
      <stop offset="0" stop-color="#629509"/>
      <stop offset="1" stop-color="#da6200"/>
    </linearGradient>
  </defs>
  <path id="fast-time" d="M73.437,100.3A58.693,58.693,0,1,0,132.129,41.61,58.693,58.693,0,0,0,73.437,100.3Zm62.194-46.116V48.749a51.745,51.745,0,0,1,48.043,48.043h-5.429a3.5,3.5,0,1,0,0,7.006h5.437a51.745,51.745,0,0,1-48.043,48.043v-5.423a3.5,3.5,0,0,0-7.006,0v5.439a51.743,51.743,0,0,1-48.043-48.043h5.437a3.5,3.5,0,0,0,0-7.006H80.575a51.743,51.743,0,0,1,48.043-48.043V54.2a3.5,3.5,0,1,0,7.006,0Zm62.755,16.549a72.466,72.466,0,1,1-38.02-37.268,3.5,3.5,0,1,1-2.731,6.452A65.481,65.481,0,1,0,191.988,73.6a3.507,3.507,0,1,1,6.406-2.859ZM184.047,49.658c.2.218.414.45.717.753a3.5,3.5,0,1,1-4.953,4.955c-.382-.383-.654-.677-.908-.951a13.088,13.088,0,0,0-.977-.977,3.5,3.5,0,0,1,4.682-5.2,19.8,19.8,0,0,1,1.439,1.425ZM106.715,66.607l26.338,29.475,11.779-5.129,18.595-8.1a3.5,3.5,0,0,1,2.8,6.424l-32.7,14.227a3.5,3.5,0,0,1-4-.877L101.5,71.267a3.5,3.5,0,0,1,5.225-4.668ZM76.94,27.772a3.5,3.5,0,1,1,0,7.006H54.706a3.5,3.5,0,1,1,0-7.006ZM17.352,64.9a3.505,3.505,0,0,1,3.5-3.5H54.706a3.5,3.5,0,1,1,0,7.006H20.851a3.5,3.5,0,0,1-3.5-3.5Zm33.542,37.558a3.5,3.5,0,1,1,0,7.006H33.971a3.5,3.5,0,1,1,0-7.006ZM17.352,140.668a3.5,3.5,0,0,1,3.5-3.5H54.706a3.5,3.5,0,1,1,0,7.006H20.851a3.5,3.5,0,0,1-3.5-3.5Zm33.542,25.165h32.6a3.5,3.5,0,1,1,0,7.006h-32.6a3.5,3.5,0,0,1,0-7.006Z" transform="translate(-17.352 -27.762)" fill="url(#linear-gradient)"/>
</svg>
