<svg xmlns="http://www.w3.org/2000/svg" width="133.59" height="51.237" viewBox="0 0 133.59 51.237">
  <g id="Layer_x0020_1" transform="translate(0 0)">
    <g id="_1880532860032" transform="translate(0 0)">
      <path id="Path_28" data-name="Path 28" d="M3168.517,145.42c13.63,13.975,14.018.565,6.892-6.743-3.962-4.062-3.962-2.73,0-6.792,7.126-7.307,6.738-20.718-6.892-6.742-1.065,1.092-2.034,2.052-2.907,2.907,7.949,7.777,7.948,6.685,0,14.462C3166.483,143.367,3167.452,144.327,3168.517,145.42Z" transform="translate(-3046.4 -114.559)" fill="#fff" fill-rule="evenodd"/>
      <path id="Path_29" data-name="Path 29" d="M2771.134,163.5c-12.948,13.276-13.382.7-6.57-6.285,3.961-4.062,3.961-2.73,0-6.792-6.812-6.986-6.378-19.561,6.57-6.285,11.294,11.58,11.294,7.782,0,19.362Z" transform="translate(-2656.259 -133.098)" fill="#fff" fill-rule="evenodd"/>
      <path id="Path_30" data-name="Path 30" d="M1059.591,322.57a10.015,10.015,0,0,0-8.014,3.466,8.133,8.133,0,0,0-7.038-3.466,8.777,8.777,0,0,0-6.3,2.294v-1.857h-6.156v23.211h6.156V333.906c0-4.009,1.808-5.474,4.788-5.474,2.886,0,4.156,1.71,4.156,5.278v12.508h6.156V333.906c0-4.009,1.759-5.474,4.789-5.474,2.833,0,4.106,1.71,4.106,5.278v12.508h6.156V332.878c0-7.719-4.4-10.308-8.8-10.308Zm21.459,0a12.045,12.045,0,0,0,0,24.089,10.487,10.487,0,0,0,6.695-2.3v1.857h6.156V323.007c-5.278,0-8.79-.437-12.851-.437Zm.437,18.322a6.279,6.279,0,1,1,6.258-6.3A6.288,6.288,0,0,1,1081.487,340.892Z" transform="translate(-993.214 -310.423)" fill="#fff"/>
      <path id="Path_31" data-name="Path 31" d="M18.372,36.237A18.123,18.123,0,1,0,18.372,0a18.12,18.12,0,1,0,0,36.237Zm0-8.753a9.169,9.169,0,0,1-9.04-9.405,9.118,9.118,0,1,1,18.231,0A9.245,9.245,0,0,1,18.372,27.485Z" transform="translate(0 0)" fill="#fff"/>
      <text id="_...crypto_trading_made_easy" data-name="...crypto trading made easy" transform="translate(0.044 49.237)" fill="#fff" font-size="6" font-family="SegoeUI, Segoe UI"><tspan x="0" y="0">...crypto trading made easy</tspan></text>
    </g>
  </g>
</svg>
