<svg id="security-shield" xmlns="http://www.w3.org/2000/svg" xmlns:xlink="http://www.w3.org/1999/xlink" width="132.065" height="145.077" viewBox="0 0 132.065 145.077">
  <defs>
    <linearGradient id="linear-gradient" x1="-0.093" y1="-0.107" x2="0.839" y2="1.096" gradientUnits="objectBoundingBox">
      <stop offset="0" stop-color="#629509"/>
      <stop offset="1" stop-color="#da6200"/>
    </linearGradient>
  </defs>
  <path id="Path_50" data-name="Path 50" d="M66.033,145.076a22.553,22.553,0,0,1-13.019-4.123c-12-8.472-28.707-22.094-40.164-38.876C7.225,93.837,3.388,83.19,1.45,70.433a147.15,147.15,0,0,1-1.2-29.359A23.505,23.505,0,0,1,13.88,21.02L53.022,2.874a30.883,30.883,0,0,1,26.023,0L96.9,11.151a2.125,2.125,0,1,1-1.788,3.856L77.257,6.73a26.642,26.642,0,0,0-22.448,0L15.668,24.876A19.265,19.265,0,0,0,4.49,41.308c-.783,14.161-.28,40.575,11.87,58.373,11.1,16.26,27.392,29.53,39.106,37.8a18.358,18.358,0,0,0,21.136,0c11.713-8.27,28-21.54,39.1-37.8,12.15-17.8,12.652-44.212,11.87-58.373A19.268,19.268,0,0,0,116.4,24.876L102.731,18.54a2.125,2.125,0,0,1,1.789-3.856l13.666,6.336A23.511,23.511,0,0,1,131.82,41.073a147.089,147.089,0,0,1-1.205,29.36c-1.938,12.758-5.772,23.4-11.4,31.644-11.457,16.783-28.165,30.4-40.164,38.876a22.556,22.556,0,0,1-13.02,4.123Zm0,0" transform="translate(-0.001 0.001)" fill="url(#linear-gradient)"/>
  <path id="Path_51" data-name="Path 51" d="M98.07,164.474a9.851,9.851,0,0,1-5.712-1.815,180.609,180.609,0,0,1-22.986-19.082,2.126,2.126,0,0,1,2.994-3.018,176.116,176.116,0,0,0,22.444,18.628,5.646,5.646,0,0,0,6.523,0c10.861-7.668,25.915-19.9,35.948-34.593,4.311-6.313,11.3-21.275,9.684-50.531a6.621,6.621,0,0,0-3.856-5.636L103.966,50.281a14.013,14.013,0,0,0-11.791,0L53.033,68.427a6.619,6.619,0,0,0-3.856,5.637c-1.617,29.255,5.373,44.216,9.684,50.531a100,100,0,0,0,7.314,9.388,2.125,2.125,0,0,1-3.2,2.8,104.242,104.242,0,0,1-7.626-9.791c-4.755-6.966-7.965-16.3-9.54-27.732a136.636,136.636,0,0,1-.877-25.43,10.862,10.862,0,0,1,6.312-9.259L90.387,46.425a18.26,18.26,0,0,1,15.366,0L144.9,64.57a10.862,10.862,0,0,1,6.312,9.259c.724,13.1.333,37.415-10.417,53.162-10.392,15.221-25.86,27.8-37.008,35.668a9.849,9.849,0,0,1-5.712,1.815Zm0,0" transform="translate(-32.038 -32.056)" fill="url(#linear-gradient)"/>
  <path id="Path_52" data-name="Path 52" d="M161.721,195.025a28.2,28.2,0,1,1,28.2-28.2A28.231,28.231,0,0,1,161.721,195.025Zm0-52.146a23.947,23.947,0,1,0,23.948,23.948A23.975,23.975,0,0,0,161.721,142.879Zm0,0" transform="translate(-95.689 -99.348)" fill="url(#linear-gradient)"/>
  <path id="Path_53" data-name="Path 53" d="M189.645,220.906a6.41,6.41,0,0,1-4.576-1.935l-7.687-7.922a6.375,6.375,0,0,1,9.15-8.88l3.068,3.162,9.915-10.413a6.339,6.339,0,0,1,9.014-.22,6.258,6.258,0,0,1,.221,9.013l-14.49,15.217a6.408,6.408,0,0,1-4.587,1.979Zm-9.168-15.822a2.162,2.162,0,0,0-.045,3.005l7.688,7.922a2.137,2.137,0,0,0,1.525.645h.02a2.134,2.134,0,0,0,1.519-.66l14.489-15.216a2.075,2.075,0,0,0-.073-3.005,2.107,2.107,0,0,0-3.005.074l-11.439,12.014a2.131,2.131,0,0,1-1.53.66,2.176,2.176,0,0,1-1.535-.645l-4.608-4.748a2.114,2.114,0,0,0-3.005-.045Zm0,0" transform="translate(-125.832 -138.257)" fill="url(#linear-gradient)"/>
</svg>
